<svg width="55" height="55" viewBox="0 0 55 55" fill="none" xmlns="http://www.w3.org/2000/svg">
<path d="M52.7311 0H10.5265H9.44437H2.36109C1.08217 0 0 1.375 0 3V18.125V20.625V52C0 53.625 1.08217 55 2.36109 55H52.6327C53.9116 55 54.9938 53.625 54.9938 52V20.625V18.125V9.875V7.375V3.125C55.0922 1.375 54.01 0 52.7311 0ZM53.1246 52C53.1246 52.25 52.9278 52.5 52.7311 52.5H2.36109C2.16433 52.5 1.96758 52.25 1.96758 52V20.625H53.1246V52ZM53.1246 18.125H1.96758V3C1.96758 2.75 2.16433 2.5 2.36109 2.5H9.05085L11.2152 9.875H53.1246V18.125ZM12.6909 7.375L11.2152 2.5H52.7311C52.9278 2.5 53.1246 2.75 53.1246 3V7.25H12.6909V7.375Z" fill="black"/>
<path d="M46.2383 3.75H44.9594C44.3691 3.75 43.9756 4.25 43.9756 5C43.9756 5.75 44.3691 6.25 44.9594 6.25H46.2383C46.8286 6.25 47.2221 5.75 47.2221 5C47.2221 4.25 46.8286 3.75 46.2383 3.75Z" fill="black"/>
<path d="M50.4683 3.75H49.1894C48.5991 3.75 48.2056 4.25 48.2056 5C48.2056 5.75 48.5991 6.25 49.1894 6.25H50.4683C51.0586 6.25 51.4521 5.75 51.4521 5C51.4521 4.25 51.0586 3.75 50.4683 3.75Z" fill="black"/>
<path d="M4.91895 14C4.91895 15.75 6.00111 17.125 7.37842 17.125H38.958C40.3353 17.125 41.4175 15.75 41.4175 14C41.4175 12.25 40.3353 10.875 38.958 10.875H7.37842C6.00111 10.875 4.91895 12.25 4.91895 14ZM39.5483 14C39.5483 14.375 39.3515 14.625 39.0564 14.625H7.37842C7.08328 14.625 6.88652 14.375 6.88652 14C6.88652 13.625 7.08328 13.375 7.37842 13.375H38.958C39.3515 13.375 39.5483 13.625 39.5483 14Z" fill="black"/>
<path d="M8.362 37.1251L18.6918 44.6251C18.8885 44.7501 18.9869 44.7501 19.1837 44.7501C19.4788 44.7501 19.8723 44.5001 20.0691 44.1251C20.3642 43.5001 20.1675 42.7501 19.6756 42.3751L10.6247 35.7501L19.6756 29.1251C20.1675 28.7501 20.2658 28.0001 20.0691 27.3751C19.7739 26.7501 19.1837 26.6251 18.6918 26.8751L8.362 34.3751C7.96849 34.6251 7.77173 35.1251 7.77173 35.6251C7.77173 36.3751 7.96849 36.8751 8.362 37.1251Z" fill="black"/>
<path d="M35.1211 44.2499C35.3179 44.6249 35.613 44.8749 36.0065 44.8749C36.2033 44.8749 36.3016 44.8749 36.4984 44.7499L46.8282 37.2499C47.2217 36.9999 47.4184 36.4999 47.4184 35.9999C47.4184 35.4999 47.2217 34.9999 46.8282 34.7499L36.4984 27.2499C36.0065 26.8749 35.4162 27.1249 35.1211 27.7499C34.826 28.3749 35.0227 29.1249 35.5146 29.4999L44.5655 36.1249L35.4162 42.4999C34.9243 42.8749 34.826 43.6249 35.1211 44.2499Z" fill="black"/>
<path d="M22.9225 44.875C23.2176 44.875 23.5128 44.75 23.7095 44.375L32.9571 28.25C33.2523 27.75 33.1539 26.875 32.7604 26.5C32.3669 26.125 31.6782 26.25 31.3831 26.75L22.1355 42.875C21.8403 43.375 21.9387 44.25 22.3322 44.625C22.529 44.875 22.7257 44.875 22.9225 44.875Z" fill="black"/>
</svg>
