<svg width="220" height="46" viewBox="0 0 220 46" fill="none" xmlns="http://www.w3.org/2000/svg">
<rect width="220" height="46" fill="#FAE5E5"/>
<path d="M3.36426 42.6566H7.68759V21.1344H32.9766V16.4054H7.68759V8.54911H32.9766V3.81372H3.36426V42.6566Z" fill="#DC6C6C"/>
<path d="M41.9356 3.57861H37.6123V42.4215H77.0786V37.6861H41.9356V3.57861Z" fill="#DC6C6C"/>
<path d="M89.7439 3.17814C88.8063 3.13274 87.8703 3.30477 86.9924 3.68384C86.1145 4.06291 85.313 4.64117 84.6361 5.38375C82.4104 7.97073 82.0654 10.4687 82.0654 23.0032C82.0654 35.5377 82.4215 38.0357 84.6249 40.6099C85.3036 41.3537 86.107 41.9331 86.9866 42.3132C87.8663 42.6933 88.8042 42.8664 89.7439 42.8219C93.2326 42.8219 96.9773 40.0633 96.9773 33.9995V20.6514H88.4697V25.3868H92.6651V33.8978C92.6651 36.5229 91.5523 38.0929 89.7495 38.0929C89.3837 38.1234 89.0163 38.0694 88.6693 37.934C88.3222 37.7985 88.0027 37.5845 87.7297 37.3047C86.6447 35.9445 86.3887 34.4635 86.3887 23.0032C86.3887 11.5429 86.6447 10.0619 87.7186 8.71441C87.9912 8.42948 88.3121 8.21142 88.6614 8.07367C89.0107 7.93592 89.381 7.88142 89.7495 7.91353C90.623 7.91353 92.6651 7.91353 92.6651 12.8078V14.2698H96.9884V12.8078C96.9884 9.62971 96.2762 7.16985 94.8462 5.42189C94.1735 4.67203 93.3742 4.08641 92.497 3.70067C91.6199 3.31494 90.6831 3.13715 89.7439 3.17814Z" fill="#DC6C6C"/>
<path d="M131.469 19.2785C132.582 18.0072 133.172 16.1766 133.172 13.774C133.172 3.604 128.576 3.604 125.538 3.604H101.746V42.4215H106.069V21.3569H122.611L130.546 42.4215H134.863L126.684 21.0963C128.242 21.0773 130.095 20.7976 131.469 19.2785ZM128.854 13.3481C128.854 16.1639 128.376 16.6597 125.666 16.6597H106.069V8.31397H125.666C127.93 8.31397 128.854 8.51101 128.854 13.3481Z" fill="#DC6C6C"/>
<path d="M148.885 3.57861H147.093L139.788 42.4215H144.111L145.969 31.6159H151.205L153.102 42.4215H157.42L150.231 3.57861H148.885ZM146.804 26.8932L148.562 16.6597L150.354 26.8932H146.804Z" fill="#DC6C6C"/>
<path d="M185.857 36.0652L166.45 13.5959H162.327V42.4214H166.644V20.8675L185.212 42.4214H189.992L190.142 13.5959H185.818L185.857 36.0652Z" fill="#DC6C6C"/>
<path d="M162.327 3.57861V8.314H195.044V42.4215H199.367V8.314H217.022V3.57861H162.327Z" fill="#DC6C6C"/>
<path d="M72.6391 32.4168H76.9513L64.4654 3.57861L59.5356 3.62311L47.0386 32.4168H51.4175L54.6058 25.069H69.4564L72.6391 32.4168ZM56.4197 20.8866L62.0339 7.92627L67.6481 20.8866H56.4197Z" fill="#DC6C6C"/>
</svg>
