<svg height='100px' width='100px'  fill="#FFFFFF" xmlns:dc="http://purl.org/dc/elements/1.1/" xmlns:cc="http://creativecommons.org/ns#" xmlns:rdf="http://www.w3.org/1999/02/22-rdf-syntax-ns#" xmlns:svg="http://www.w3.org/2000/svg" xmlns="http://www.w3.org/2000/svg" xmlns:sodipodi="http://sodipodi.sourceforge.net/DTD/sodipodi-0.dtd" xmlns:inkscape="http://www.inkscape.org/namespaces/inkscape" viewBox="0 0 32 32" version="1.1" x="0px" y="0px"><g transform="translate(0,-1020.3622)"><path style="text-indent:0;text-transform:none;direction:ltr;block-progression:tb;baseline-shift:baseline;color:#000000;enable-background:accumulate;" d="m 5,1035.375 0,1 5,0 0,-1 -5,0 z" fill="#FFFFFF" fill-opacity="1" stroke="none" marker="none" visibility="visible" display="inline" overflow="visible"></path><path style="text-indent:0;text-transform:none;direction:ltr;block-progression:tb;baseline-shift:baseline;color:#000000;enable-background:accumulate;" d="M 4.90625,1037.375 4.5,1038.2812 9.09375,1040.375 9.5,1039.4375 4.90625,1037.375 z" fill="#FFFFFF" fill-opacity="1" stroke="none" marker="none" visibility="visible" display="inline" overflow="visible"></path><path style="text-indent:0;text-transform:none;direction:ltr;block-progression:tb;baseline-shift:baseline;color:#000000;enable-background:accumulate;" d="m 3.5,1041.375 0,1 5,0 0,-1 -5,0 z" fill="#FFFFFF" fill-opacity="1" stroke="none" marker="none" visibility="visible" display="inline" overflow="visible"></path><path style="text-indent:0;text-transform:none;direction:ltr;block-progression:tb;baseline-shift:baseline;color:#000000;enable-background:accumulate;" d="m 3,1044.375 0,1 5,0 0,-1 -5,0 z" fill="#FFFFFF" fill-opacity="1" stroke="none" marker="none" visibility="visible" display="inline" overflow="visible"></path><path style="text-indent:0;text-transform:none;direction:ltr;block-progression:tb;baseline-shift:baseline;color:#000000;enable-background:accumulate;" d="m 7.53125,1031.4062 c -0.8826336,-0.2397 -1.7975789,0.3032 -2.03125,1.1876 l -3.4375,13.0624 c -0.2336895,0.8843 0.2735447,1.7916 1.15625,2.0313 l 2.25,0.625 c 0.8826281,0.2397 1.7975646,-0.3032 2.03125,-1.1875 l 3.4375,-13.0625 c 0.23367,-0.8843 -0.273552,-1.7915 -1.15625,-2.0313 l -2.25,-0.625 z m -0.25,0.9688 L 9.5,1033 c 0.36468,0.099 0.565322,0.447 0.46875,0.8125 l -3.4375,13.0625 c -0.096551,0.3653 -0.4477491,0.5678 -0.8125,0.4688 L 3.5,1046.75 c -0.3646929,-0.099 -0.5652967,-0.4784 -0.46875,-0.8438 l 3.4375,-13.0624 c 0.09657,-0.3655 0.4477354,-0.5679 0.8125,-0.4688 z" fill="#FFFFFF" fill-opacity="1" stroke="none" marker="none" visibility="visible" display="inline" overflow="visible"></path><path style="text-indent:0;text-transform:none;direction:ltr;block-progression:tb;baseline-shift:baseline;color:#000000;enable-background:accumulate;" d="m 22,1035.375 0,1 5,0 0,-1 -5,0 z" fill="#FFFFFF" fill-opacity="1" stroke="none" marker="none" visibility="visible" display="inline" overflow="visible"></path><path style="text-indent:0;text-transform:none;direction:ltr;block-progression:tb;baseline-shift:baseline;color:#000000;enable-background:accumulate;" d="m 27.09375,1037.375 -4.59375,2.0625 0.40625,0.9375 4.59375,-2.0938 -0.40625,-0.9062 z" fill="#FFFFFF" fill-opacity="1" stroke="none" marker="none" visibility="visible" display="inline" overflow="visible"></path><path style="text-indent:0;text-transform:none;direction:ltr;block-progression:tb;baseline-shift:baseline;color:#000000;enable-background:accumulate;" d="m 23.5,1041.375 0,1 5,0 0,-1 -5,0 z" fill="#FFFFFF" fill-opacity="1" stroke="none" marker="none" visibility="visible" display="inline" overflow="visible"></path><path style="text-indent:0;text-transform:none;direction:ltr;block-progression:tb;baseline-shift:baseline;color:#000000;enable-background:accumulate;" d="m 24,1044.375 0,1 5,0 0,-1 -5,0 z" fill="#FFFFFF" fill-opacity="1" stroke="none" marker="none" visibility="visible" display="inline" overflow="visible"></path><path style="text-indent:0;text-transform:none;direction:ltr;block-progression:tb;baseline-shift:baseline;color:#000000;enable-background:accumulate;" d="m 24.46875,1031.4062 -2.25,0.625 c -0.882597,0.2399 -1.389913,1.147 -1.15625,2.0313 L 24.5,1047.125 c 0.233685,0.8843 1.148617,1.4272 2.03125,1.1875 l 2.25,-0.625 c 0.882645,-0.2399 1.389939,-1.147 1.15625,-2.0313 L 26.5,1032.5938 c -0.233667,-0.8844 -1.148599,-1.4274 -2.03125,-1.1876 z m 0.25,0.9688 c 0.364747,-0.099 0.715931,0.1033 0.8125,0.4688 l 3.4375,13.0624 c 0.09655,0.3654 -0.103997,0.7447 -0.46875,0.8438 l -2.21875,0.5938 c -0.364765,0.099 -0.715949,-0.1035 -0.8125,-0.4688 l -3.4375,-13.0625 C 21.934677,1033.447 22.135199,1033.0991 22.5,1033 l 2.21875,-0.625 z" fill="#FFFFFF" fill-opacity="1" stroke="none" marker="none" visibility="visible" display="inline" overflow="visible"></path><path style="text-indent:0;text-transform:none;direction:ltr;block-progression:tb;baseline-shift:baseline;color:#000000;enable-background:accumulate;" d="m 9.34375,1030.375 a 0.50004997,0.50004997 0 0 0 -0.1875,0.125 l -1,1 a 0.50004997,0.50004997 0 1 0 0.6875,0.7188 l 1,-1 a 0.50004997,0.50004997 0 0 0 -0.5,-0.8438 z" fill="#FFFFFF" fill-opacity="1" stroke="none" marker="none" visibility="visible" display="inline" overflow="visible"></path><path style="text-indent:0;text-transform:none;direction:ltr;block-progression:tb;baseline-shift:baseline;color:#000000;enable-background:accumulate;" d="m 10.8125,1028.4375 -0.625,0.2187 c -0.4063172,0.1295 -0.7586922,0.3592 -0.96875,0.6876 -0.2100578,0.3283 -0.2872365,0.7659 -0.125,1.1562 0.3246054,0.7803 1.280946,1.0403 2.09375,0.7812 l 0.625,-0.2187 c 0.406317,-0.1295 0.758692,-0.3591 0.96875,-0.6875 0.210058,-0.3284 0.287233,-0.7659 0.125,-1.1562 -0.324611,-0.7804 -1.280946,-1.0403 -2.09375,-0.7813 z m 0.3125,0.9687 c 0.415924,-0.1325 0.783061,0.042 0.84375,0.1876 0.03041,0.073 0.03388,0.1481 -0.03125,0.25 -0.06513,0.1018 -0.198203,0.2149 -0.40625,0.2812 l -0.65625,0.1875 c -0.415926,0.1326 -0.783063,-0.042 -0.84375,-0.1875 -0.03041,-0.073 -0.033875,-0.1169 0.03125,-0.2188 0.06513,-0.1018 0.198203,-0.2461 0.40625,-0.3124 l 0.65625,-0.1876 z" fill="#FFFFFF" fill-opacity="1" stroke="none" marker="none" visibility="visible" display="inline" overflow="visible"></path><path style="text-indent:0;text-transform:none;direction:ltr;block-progression:tb;baseline-shift:baseline;color:#000000;enable-background:accumulate;" d="m 22.28125,1030.375 a 0.50004997,0.50004997 0 0 0 -0.1875,0.8438 l 0.96875,1 a 0.50825068,0.50825068 0 1 0 0.71875,-0.7188 l -1,-1 a 0.50004997,0.50004997 0 0 0 -0.5,-0.125 z" fill="#FFFFFF" fill-opacity="1" stroke="none" marker="none" visibility="visible" display="inline" overflow="visible"></path><path style="text-indent:0;text-transform:none;direction:ltr;block-progression:tb;baseline-shift:baseline;color:#000000;enable-background:accumulate;" d="m 19.96875,1028.4375 c -0.375375,0.1267 -0.712716,0.3911 -0.875,0.7813 -0.162265,0.3903 -0.08505,0.8278 0.125,1.1562 0.210045,0.3284 0.562409,0.558 0.96875,0.6875 l 0.625,0.2187 c 0.812804,0.2591 1.769184,-8e-4 2.09375,-0.7812 0.162269,-0.3903 0.08505,-0.8279 -0.125,-1.1562 -0.210048,-0.3284 -0.562409,-0.558 -0.96875,-0.6876 l -0.625,-0.2187 c -0.406401,-0.1295 -0.843375,-0.1267 -1.21875,0 z m 0.90625,0.9687 0.65625,0.1876 c 0.208023,0.066 0.341115,0.2106 0.40625,0.3124 0.06514,0.1019 0.06163,0.1457 0.03125,0.2188 -0.06073,0.146 -0.427824,0.3201 -0.84375,0.1875 l -0.65625,-0.1875 c -0.208023,-0.066 -0.341117,-0.1794 -0.40625,-0.2812 -0.06513,-0.1019 -0.06163,-0.177 -0.03125,-0.25 0.06073,-0.1461 0.427825,-0.3201 0.84375,-0.1876 z" fill="#FFFFFF" fill-opacity="1" stroke="none" marker="none" visibility="visible" display="inline" overflow="visible"></path><path style="text-indent:0;text-transform:none;direction:ltr;block-progression:tb;baseline-shift:baseline;color:#000000;enable-background:accumulate;" d="m 13.34375,1027.375 a 0.50004997,0.50004997 0 0 0 -0.1875,0.125 l -1,1 a 0.50004997,0.50004997 0 1 0 0.6875,0.7188 l 1,-1 a 0.50004997,0.50004997 0 0 0 -0.5,-0.8438 z" fill="#FFFFFF" fill-opacity="1" stroke="none" marker="none" visibility="visible" display="inline" overflow="visible"></path><path style="text-indent:0;text-transform:none;direction:ltr;block-progression:tb;baseline-shift:baseline;color:#000000;enable-background:accumulate;" d="m 14.3125,1025.4375 -0.625,0.2187 c -0.406341,0.1296 -0.758702,0.3592 -0.96875,0.6876 -0.210048,0.3283 -0.287266,0.7659 -0.125,1.1562 0.324571,0.7804 1.280946,1.0403 2.09375,0.7812 l 0.625,-0.2187 c 0.406341,-0.1295 0.758705,-0.3591 0.96875,-0.6875 0.210045,-0.3284 0.287268,-0.7659 0.125,-1.1562 -0.324563,-0.7804 -1.280948,-1.0403 -2.09375,-0.7813 z m 0.3125,0.9687 c 0.415926,-0.1325 0.783021,0.042 0.84375,0.1876 0.03038,0.073 0.03388,0.1481 -0.03125,0.25 -0.06513,0.1018 -0.198227,0.2149 -0.40625,0.2812 l -0.65625,0.1875 c -0.415924,0.1326 -0.783021,-0.042 -0.84375,-0.1875 -0.03038,-0.073 -0.03389,-0.1169 0.03125,-0.2188 0.06514,-0.1018 0.198227,-0.2462 0.40625,-0.3124 l 0.65625,-0.1876 z" fill="#FFFFFF" fill-opacity="1" stroke="none" marker="none" visibility="visible" display="inline" overflow="visible"></path><path style="text-indent:0;text-transform:none;direction:ltr;block-progression:tb;baseline-shift:baseline;color:#000000;enable-background:accumulate;" d="m 18.84375,1027.375 a 0.50004997,0.50004997 0 0 0 -0.1875,0.8438 l 1,1 a 0.50004997,0.50004997 0 1 0 0.6875,-0.7188 l -1,-1 a 0.50004997,0.50004997 0 0 0 -0.5,-0.125 z" fill="#FFFFFF" fill-opacity="1" stroke="none" marker="none" visibility="visible" display="inline" overflow="visible"></path><path style="text-indent:0;text-transform:none;direction:ltr;block-progression:tb;baseline-shift:baseline;color:#000000;enable-background:accumulate;" d="m 16.96875,1025.4375 c -0.375377,0.1267 -0.712715,0.3911 -0.875,0.7813 -0.162266,0.3903 -0.08505,0.8278 0.125,1.1562 0.210048,0.3284 0.562409,0.558 0.96875,0.6875 l 0.625,0.2187 c 0.812804,0.2591 1.769184,-8e-4 2.09375,-0.7812 0.162269,-0.3903 0.08505,-0.8279 -0.125,-1.1562 -0.210048,-0.3284 -0.562409,-0.558 -0.96875,-0.6876 l -0.625,-0.2187 c -0.406402,-0.1295 -0.843373,-0.1267 -1.21875,0 z m 0.90625,0.9687 0.65625,0.1876 c 0.208023,0.066 0.341115,0.2106 0.40625,0.3124 0.06514,0.1019 0.06163,0.1457 0.03125,0.2188 -0.06073,0.146 -0.427824,0.3201 -0.84375,0.1875 l -0.65625,-0.1875 c -0.208023,-0.066 -0.341114,-0.1794 -0.40625,-0.2812 -0.06514,-0.1019 -0.06163,-0.177 -0.03125,-0.25 0.06073,-0.1461 0.427826,-0.3201 0.84375,-0.1876 z" fill="#FFFFFF" fill-opacity="1" stroke="none" marker="none" visibility="visible" display="inline" overflow="visible"></path></g></svg>