<svg width="68" height="68" viewBox="0 0 68 68" fill="none" xmlns="http://www.w3.org/2000/svg">
<g filter="url(#filter0_d_22_550)">
<path d="M57.6292 46.6306L50.4054 39.264C50.3534 39.2118 49.1066 37.9791 47.2813 37.9791C46.3105 37.9791 45.3709 38.3181 44.4899 38.9886C42.295 40.6553 38.0498 45.2374 36.6499 46.7683C34.1657 45.6505 24.1846 40.5043 17.3966 27.416L24.713 19.9022C25.6271 19.0218 26.8437 16.5242 24.9059 13.3732C22.8386 10.0152 17.4798 6.25166 16.9571 5.88984C16.7179 5.69896 15.749 5 14.3236 5C13.4095 5 12.5087 5.28775 11.6437 5.85565C8.88829 7.67141 4.17801 12.7882 4.0003 20.4473C3.99747 20.5594 4.01448 20.6705 4.0504 20.7778C4.14304 21.0484 13.6156 47.9971 42.5521 59.9288C42.6665 59.9763 42.7884 60 42.9113 60C42.9236 60 42.935 60 42.9473 59.999C43.3102 59.9848 51.1739 59.604 56.7728 54.0285C56.7822 54.0199 56.7945 54.0171 56.803 54.0085C56.8106 54.0009 56.8125 53.9905 56.8191 53.9839C57.3342 53.4663 57.8381 52.9212 58.3069 52.3105C58.9809 51.2963 59.7069 48.8063 57.6292 46.6306ZM56.7737 51.2032C56.5601 51.4805 56.3341 51.736 56.1073 51.9914L51.2392 47.1918C50.8667 46.8234 50.2684 46.8291 49.9025 47.2051C49.5367 47.5793 49.5424 48.1804 49.9158 48.548L54.7697 53.3324C50.2192 57.3466 44.2224 58 43.072 58.0893C16.234 46.9231 6.69999 22.5014 5.89557 20.3181C6.12149 13.5432 10.2551 9.04368 12.6807 7.44539C13.2318 7.08357 13.7838 6.90028 14.3245 6.90028C15.1876 6.90028 15.7755 7.37227 15.7755 7.37227C15.801 7.39411 15.8284 7.415 15.8559 7.434C15.9107 7.47198 21.38 11.2574 23.298 14.3723C24.8671 16.925 23.5513 18.3827 23.383 18.5527L23.1864 18.755L18.3088 13.9478C17.9355 13.5793 17.338 13.5869 16.9722 13.9611C16.6064 14.3362 16.6121 14.9364 16.9855 15.3039L21.8649 20.1121L15.5694 26.5774C15.2868 26.868 15.2188 27.3067 15.4012 27.6686C23.5078 43.8253 36.043 48.6002 36.5724 48.7949C36.9344 48.9297 37.3399 48.8281 37.5989 48.5413C37.6547 48.4796 43.1751 42.3675 45.6299 40.5033C46.1763 40.0883 46.7312 39.8784 47.2813 39.8784C48.306 39.8784 49.0631 40.6021 49.0631 40.6021L56.2737 47.9544C57.77 49.5214 56.8418 51.0902 56.7737 51.2032Z" fill="black"/>
<path d="M23.8538 17.3796C24.4569 16.7999 24.4475 15.8709 23.8304 15.3044L21.1085 12.7991C20.4929 12.2296 19.5038 12.2428 18.8991 12.8196C18.296 13.3993 18.3054 14.3284 18.9225 14.8949L21.6444 17.4002C21.9475 17.6805 22.3429 17.82 22.7382 17.82C23.1429 17.8185 23.5475 17.6717 23.8538 17.3796Z" fill="black"/>
<path d="M45.2304 28.7084C45.4276 28.9036 45.6762 29 45.9237 29C46.2021 29 46.4794 28.8792 46.6817 28.6408L52.4512 21.8431C52.8343 21.3919 52.8055 20.6902 52.3875 20.2767C51.9684 19.8632 51.3193 19.8942 50.9362 20.3454L45.8611 26.3261L40.4789 21.0072L52.5036 6.82865C52.8867 6.37746 52.8579 5.67685 52.4389 5.26335L50.0497 2.9021L61.4366 2.27465L61.8546 14.5731L59.3371 12.0844C59.1368 11.8859 58.8728 11.7751 58.5986 11.7939C58.3264 11.8072 58.0696 11.9358 57.8868 12.152L56.1335 14.2184C55.7503 14.6707 55.7791 15.3713 56.1971 15.7848C56.6162 16.1983 57.2664 16.1672 57.6485 15.716L58.7085 14.4667L62.2788 17.9964C62.5839 18.299 63.0266 18.3711 63.4035 18.1859C63.7795 17.9975 64.0147 17.5851 63.9993 17.1383L63.4518 1.06742C63.4415 0.770325 63.3224 0.490966 63.119 0.291424C62.9167 0.0907732 62.6496 -0.0112151 62.3723 0.000979099L47.4932 0.821319C47.0803 0.844599 46.7198 1.13283 46.579 1.55297C46.4383 1.97423 46.5462 2.44426 46.8523 2.74579L50.2942 6.14799L38.2695 20.3266C37.8864 20.7778 37.9151 21.4784 38.3342 21.8919L45.2304 28.7084Z" fill="black"/>
</g>
<defs>
<filter id="filter0_d_22_550" x="0" y="0" width="68" height="68" filterUnits="userSpaceOnUse" color-interpolation-filters="sRGB">
<feFlood flood-opacity="0" result="BackgroundImageFix"/>
<feColorMatrix in="SourceAlpha" type="matrix" values="0 0 0 0 0 0 0 0 0 0 0 0 0 0 0 0 0 0 127 0" result="hardAlpha"/>
<feOffset dy="4"/>
<feGaussianBlur stdDeviation="2"/>
<feComposite in2="hardAlpha" operator="out"/>
<feColorMatrix type="matrix" values="0 0 0 0 0 0 0 0 0 0 0 0 0 0 0 0 0 0 0.25 0"/>
<feBlend mode="normal" in2="BackgroundImageFix" result="effect1_dropShadow_22_550"/>
<feBlend mode="normal" in="SourceGraphic" in2="effect1_dropShadow_22_550" result="shape"/>
</filter>
</defs>
</svg>
